<svg width="11" height="6" viewBox="0 0 11 6" fill="none" xmlns="http://www.w3.org/2000/svg">
<path fill-rule="evenodd" clip-rule="evenodd" d="M6.0443 0.215885L10.7741 4.74191C10.8452 4.80734 10.902 4.88759 10.9409 4.97741C10.9798 5.06722 11 5.16454 11 5.26299C11 5.36143 10.9798 5.45876 10.9409 5.54857C10.902 5.63839 10.8452 5.71864 10.7741 5.78407C10.6235 5.92314 10.4286 6 10.2269 6C10.0251 6 9.83048 5.92314 9.67988 5.78407L5.49986 1.77912L1.31419 5.78407C1.1647 5.92309 0.970925 5.99998 0.770026 5.99998C0.569127 5.99998 0.375349 5.92309 0.225863 5.78407C0.15483 5.71859 0.0980087 5.63828 0.059081 5.54842C0.0201533 5.45856 4.998e-07 5.36118 4.998e-07 5.26269C4.998e-07 5.1642 0.0201533 5.06682 0.059081 4.97696C0.0980087 4.8871 0.15483 4.80679 0.225863 4.74131L4.95004 0.215885C5.1016 0.0764849 5.29717 -0.000344034 5.49986 1.69069e-05C5.70099 -0.00132344 5.89549 0.0757338 6.0443 0.215885V0.215885Z" fill="#C7C7C7"/>
</svg>
