<svg width="82" height="82" viewBox="0 0 82 82" fill="none" xmlns="http://www.w3.org/2000/svg">
<path d="M29.795 50L46.525 25.5H51.565L34.835 50H29.795ZM32.035 38.765C30.845 38.765 29.7717 38.4967 28.815 37.96C27.8583 37.4233 27.1117 36.6533 26.575 35.65C26.0383 34.6233 25.77 33.3983 25.77 31.975C25.77 30.5517 26.0383 29.3383 26.575 28.335C27.1117 27.3317 27.8583 26.5617 28.815 26.025C29.7717 25.465 30.845 25.185 32.035 25.185C33.2483 25.185 34.3217 25.465 35.255 26.025C36.2117 26.5617 36.9583 27.3317 37.495 28.335C38.055 29.3383 38.335 30.5517 38.335 31.975C38.335 33.375 38.055 34.5883 37.495 35.615C36.9583 36.6417 36.2117 37.4233 35.255 37.96C34.3217 38.4967 33.2483 38.765 32.035 38.765ZM32.07 35.44C32.6533 35.44 33.1317 35.1717 33.505 34.635C33.9017 34.0983 34.1 33.2117 34.1 31.975C34.1 30.7383 33.9017 29.8517 33.505 29.315C33.1317 28.7783 32.6533 28.51 32.07 28.51C31.4867 28.51 30.985 28.7783 30.565 29.315C30.1683 29.8517 29.97 30.7383 29.97 31.975C29.97 33.2117 30.1683 34.0983 30.565 34.635C30.985 35.1717 31.4867 35.44 32.07 35.44ZM49.325 50.315C48.1117 50.315 47.0267 50.0467 46.07 49.51C45.1367 48.9733 44.4017 48.2033 43.865 47.2C43.3283 46.1733 43.06 44.9483 43.06 43.525C43.06 42.1017 43.3283 40.8883 43.865 39.885C44.4017 38.8817 45.1367 38.1117 46.07 37.575C47.0267 37.015 48.1117 36.735 49.325 36.735C50.5383 36.735 51.6117 37.015 52.545 37.575C53.5017 38.1117 54.2483 38.8817 54.785 39.885C55.345 40.8883 55.625 42.1017 55.625 43.525C55.625 44.9483 55.345 46.1733 54.785 47.2C54.2483 48.2033 53.5017 48.9733 52.545 49.51C51.6117 50.0467 50.5383 50.315 49.325 50.315ZM49.325 46.99C49.9083 46.99 50.3983 46.7217 50.795 46.185C51.1917 45.6483 51.39 44.7617 51.39 43.525C51.39 42.2883 51.1917 41.4017 50.795 40.865C50.3983 40.3283 49.9083 40.06 49.325 40.06C48.765 40.06 48.275 40.3283 47.855 40.865C47.4583 41.4017 47.26 42.2883 47.26 43.525C47.26 44.7617 47.4583 45.6483 47.855 46.185C48.275 46.7217 48.765 46.99 49.325 46.99Z" fill="white"/>
<g filter="url(#filter0_dd_1_217)">
<circle cx="41" cy="37" r="25.5" stroke="white"/>
</g>
<defs>
<filter id="filter0_dd_1_217" x="0" y="0" width="82" height="82" filterUnits="userSpaceOnUse" color-interpolation-filters="sRGB">
<feFlood flood-opacity="0" result="BackgroundImageFix"/>
<feColorMatrix in="SourceAlpha" type="matrix" values="0 0 0 0 0 0 0 0 0 0 0 0 0 0 0 0 0 0 127 0" result="hardAlpha"/>
<feOffset dy="4"/>
<feGaussianBlur stdDeviation="2"/>
<feColorMatrix type="matrix" values="0 0 0 0 1 0 0 0 0 1 0 0 0 0 1 0 0 0 0.25 0"/>
<feBlend mode="normal" in2="BackgroundImageFix" result="effect1_dropShadow_1_217"/>
<feColorMatrix in="SourceAlpha" type="matrix" values="0 0 0 0 0 0 0 0 0 0 0 0 0 0 0 0 0 0 127 0" result="hardAlpha"/>
<feOffset dy="4"/>
<feGaussianBlur stdDeviation="7.5"/>
<feColorMatrix type="matrix" values="0 0 0 0 1 0 0 0 0 1 0 0 0 0 1 0 0 0 0.25 0"/>
<feBlend mode="normal" in2="effect1_dropShadow_1_217" result="effect2_dropShadow_1_217"/>
<feBlend mode="normal" in="SourceGraphic" in2="effect2_dropShadow_1_217" result="shape"/>
</filter>
</defs>
</svg>
