<svg width="24" height="24" viewBox="0 0 24 24" fill="none" xmlns="http://www.w3.org/2000/svg">
<path fill-rule="evenodd" clip-rule="evenodd" d="M8.00001 10C8.00001 7.75576 9.57911 6 12 6C14.4142 6 16 7.92158 16 10.2C16 13.4796 14.2181 15 12 15C9.76087 15 8.00001 13.4274 8.00001 10ZM10 10C10 12.2693 10.8182 13 12 13C13.1777 13 14 12.2984 14 10.2C14 8.95042 13.2157 8 12 8C10.7337 8 10 8.81582 10 10ZM5.60986 19.9546C5.6514 19.9843 5.70126 20 5.75231 20C5.88911 20 6.00001 19.8891 6.00001 19.7523V19C6.00001 17.8021 8.14421 17 12 17C15.8558 17 18 17.8021 18 19V19.7523C18 19.8891 18.1109 20 18.2477 20C18.2988 20 18.3486 19.9843 18.3902 19.9546C18.6076 19.7991 18.8192 19.6359 19.0245 19.4654C19.6595 18.9379 19.9907 18.0546 19.556 17.3527C18.5346 15.7031 15.8098 15 12 15C8.19018 15 5.46544 15.7031 4.44399 17.3527C4.00935 18.0546 4.34049 18.9379 4.97556 19.4654C5.18082 19.6359 5.39239 19.7991 5.60986 19.9546Z" fill="black" fill-opacity="0.77"/>
</svg>
